<svg width="48" height="48" xmlns="http://www.w3.org/2000/svg" xmlns:xlink="http://www.w3.org/1999/xlink" xml:space="preserve" overflow="hidden"><g transform="translate(-273 -365)"><path d="M294 378.5 302 378.5 302 377C302 375.9 301.1 375 300 375L279 375C277.9 375 277 375.9 277 377L277 390.5C277 391.6 277.9 392.5 279 392.5L282 392.5 282 397.5 287 392.5 290 392.5 290 382.5C290 380.3 291.8 378.5 294 378.5Z" fill="#FFFFFF"/><path d="M315 380.5 294 380.5C292.9 380.5 292 381.4 292 382.5L292 396C292 397.1 292.9 398 294 398L307 398 312 403 312 398 315 398C316.1 398 317 397.1 317 396L317 382.5C317 381.4 316.1 380.5 315 380.5Z" fill="#FFFFFF"/></g></svg>