<svg width="48" height="48" xmlns="http://www.w3.org/2000/svg" xmlns:xlink="http://www.w3.org/1999/xlink" xml:space="preserve" overflow="hidden"><g transform="translate(-234 -512)"><path d="M250.5 527.4C250.5 529.885 248.485 531.9 246 531.9 243.515 531.9 241.5 529.885 241.5 527.4 241.5 524.915 243.515 522.9 246 522.9 248.485 522.9 250.5 524.915 250.5 527.4Z" fill="#FFFFFF"/><path d="M274.5 527.4C274.5 529.885 272.485 531.9 270 531.9 267.515 531.9 265.5 529.885 265.5 527.4 265.5 524.915 267.515 522.9 270 522.9 272.485 522.9 274.5 524.915 274.5 527.4Z" fill="#FFFFFF"/><path d="M267 549.1 267 544.6C267 543.9 266.7 543.2 266.1 542.8 264.9 541.8 263.3 541.1 261.7 540.7 260.6 540.4 259.3 540.1 258 540.1 256.8 540.1 255.5 540.3 254.3 540.7 252.7 541.1 251.2 541.9 249.9 542.8 249.3 543.3 249 543.9 249 544.6L249 549.1 267 549.1Z" fill="#FFFFFF"/><path d="M262.5 534.4C262.5 536.885 260.485 538.9 258 538.9 255.515 538.9 253.5 536.885 253.5 534.4 253.5 531.915 255.515 529.9 258 529.9 260.485 529.9 262.5 531.915 262.5 534.4Z" fill="#FFFFFF"/><path d="M278.1 535.8C276.9 534.8 275.3 534.1 273.7 533.7 272.6 533.4 271.3 533.1 270 533.1 268.8 533.1 267.5 533.3 266.3 533.7 265.7 533.9 265.1 534.1 264.5 534.4L264.5 534.5C264.5 536.2 263.8 537.8 262.7 538.9 264.6 539.5 266.1 540.3 267.3 541.2 267.6 541.5 267.9 541.7 268.1 542.1L279 542.1 279 537.6C279 536.9 278.7 536.2 278.1 535.8Z" fill="#FFFFFF"/><path d="M248.7 541.2 248.7 541.2C250.1 540.2 251.7 539.4 253.3 538.9 252.2 537.7 251.5 536.2 251.5 534.5 251.5 534.4 251.5 534.4 251.5 534.3 250.9 534.1 250.3 533.8 249.7 533.7 248.6 533.4 247.3 533.1 246 533.1 244.8 533.1 243.5 533.3 242.3 533.7 240.7 534.2 239.2 534.9 237.9 535.8 237.3 536.2 237 536.9 237 537.6L237 542.1 247.8 542.1C248.1 541.7 248.3 541.5 248.7 541.2Z" fill="#FFFFFF"/></g></svg>