<svg width="48" height="48" xmlns="http://www.w3.org/2000/svg" xmlns:xlink="http://www.w3.org/1999/xlink" xml:space="preserve" overflow="hidden"><g transform="translate(-107 -365)"><path d="M131 391.7C127.75 391.7 125.1 394.35 125.1 397.6 125.1 400.85 127.75 403.55 131 403.55 134.25 403.55 136.9 400.9 136.9 397.65 136.9 394.4 134.25 391.7 131 391.7" fill="#FFFFFF"/><path d="M131 386.65C124.95 386.65 120 391.6 120 397.65 120 403.7 124.95 408.65 131 408.65 137.05 408.65 142 403.7 142 397.65 142 391.6 137.05 386.65 131 386.65M131 405.65C126.6 405.65 123 402.05 123 397.65 123 393.25 126.6 389.65 131 389.65 135.4 389.65 139 393.25 139 397.65 139 402.05 135.4 405.65 131 405.65" fill="#FFFFFF"/><path d="M133.7 384.9C135.7 385.35 137.55 386.2 139.15 387.45L145.3 373.55 142.5 369.35 140.7 369.35 136.8 377.9 133.7 384.9Z" fill="#FFFFFF"/><path d="M128.3 384.9 125.2 377.9 121.3 369.35 119.5 369.35 116.75 373.55 122.9 387.45C124.45 386.25 126.3 385.35 128.3 384.9" fill="#FFFFFF"/><path d="M135.75 375.4 138.5 369.4 123.5 369.4 126.25 375.4Z" fill="#FFFFFF"/></g></svg>