<svg width="48" height="48" xmlns="http://www.w3.org/2000/svg" xmlns:xlink="http://www.w3.org/1999/xlink" xml:space="preserve" overflow="hidden"><g transform="translate(-63 -305)"><path d="M105.25 319C105.25 320.657 103.907 322 102.25 322 100.593 322 99.25 320.657 99.25 319 99.25 317.343 100.593 316 102.25 316 103.907 316 105.25 317.343 105.25 319Z" fill="#FFFFFF"/><path d="M108.45 331.05 106.95 326.5 106.45 325.05C106.4 324.9 106.35 324.8 106.25 324.65 105.45 323.8 104.4 323.25 103.2 323.05 102.85 323 102.55 323 102.25 323 101.95 323 101.65 323 101.4 323.05 100.2 323.25 99.15 323.8 98.35 324.65 98.25 324.75 98.15 324.9 98.15 325.05L97.65 326.5 97.3 327.55 96.9 326.5 96.4 325.05C96.35 324.9 96.3 324.8 96.2 324.65 95.4 323.8 94.35 323.25 93.15 323.05 92.85 323 92.55 323 92.25 323 91.95 323 91.65 323 91.4 323.05 90.2 323.25 89.15 323.8 88.35 324.65 88.25 324.75 88.15 324.9 88.15 325.05L87.65 326.5 87.3 327.55 86.9 326.5 86.4 325.05C86.35 324.9 86.3 324.8 86.2 324.65 85.4 323.8 84.35 323.25 83.15 323.05 82.85 323 82.55 323 82.25 323 81.95 323 81.65 323 81.4 323.05 80.2 323.25 79.15 323.8 78.35 324.65 78.25 324.75 78.15 324.9 78.15 325.05L77.65 326.5 77.3 327.55 76.9 326.5 76.4 325.05C76.35 324.9 76.3 324.8 76.2 324.65 75.4 323.8 74.35 323.25 73.15 323.05 72.8 323 72.55 323 72.25 323 71.95 323 71.65 323 71.4 323.05 70.2 323.25 69.15 323.8 68.35 324.65 68.25 324.75 68.15 324.9 68.15 325.05L67.65 326.5 66.15 331.05C65.95 331.65 66.2 332.35 66.8 332.65 67 332.75 67.15 332.75 67.35 332.75 67.85 332.75 68.35 332.4 68.55 331.9L69.35 329.45 69.35 331.95 67.85 335.95 69.35 335.95 69.35 340.45 71.85 340.45 71.85 335.95 72.85 335.95 72.85 340.45 75.35 340.45 75.35 335.95 76.85 335.95 75.35 331.85 75.35 329.4 76.15 331.85C76.3 332.35 76.8 332.7 77.35 332.7 77.35 332.7 77.35 332.7 77.35 332.7 77.35 332.7 77.35 332.7 77.35 332.7L77.35 332.7 77.35 332.7C77.85 332.7 78.35 332.35 78.55 331.85L79.35 329.4 79.35 340.5 81.85 340.5 81.85 333 82.85 333 82.85 340.5 85.35 340.5 85.35 329.45 86.15 331.9C86.35 332.45 86.8 332.75 87.35 332.75L87.35 332.75C87.35 332.75 87.35 332.75 87.35 332.75 87.85 332.75 88.35 332.4 88.55 331.9L89.35 329.45 89.35 331.9 87.85 336 89.35 336 89.35 340.5 91.85 340.5 91.85 336 92.85 336 92.85 340.5 95.35 340.5 95.35 336 96.85 336 95.35 332 95.35 329.5 96.15 331.95C96.3 332.45 96.8 332.8 97.35 332.8 97.35 332.8 97.35 332.8 97.35 332.8 97.35 332.8 97.35 332.8 97.35 332.8 97.35 332.8 97.35 332.8 97.35 332.8 97.35 332.8 97.35 332.8 97.35 332.8 97.85 332.8 98.35 332.45 98.55 331.95L99.35 329.5 99.35 340.5 101.85 340.5 101.85 333 102.85 333 102.85 340.5 105.35 340.5 105.35 329.45 106.15 331.9C106.3 332.4 106.8 332.75 107.35 332.75 107.55 332.75 107.7 332.7 107.9 332.65 108.4 332.35 108.65 331.65 108.45 331.05Z" fill="#FFFFFF"/><path d="M75.25 319C75.25 320.657 73.9069 322 72.25 322 70.5931 322 69.25 320.657 69.25 319 69.25 317.343 70.5931 316 72.25 316 73.9069 316 75.25 317.343 75.25 319Z" fill="#FFFFFF"/><path d="M95.25 319C95.25 320.657 93.9069 322 92.25 322 90.5931 322 89.25 320.657 89.25 319 89.25 317.343 90.5931 316 92.25 316 93.9069 316 95.25 317.343 95.25 319Z" fill="#FFFFFF"/><path d="M85.25 319C85.25 320.657 83.9069 322 82.25 322 80.5931 322 79.25 320.657 79.25 319 79.25 317.343 80.5931 316 82.25 316 83.9069 316 85.25 317.343 85.25 319Z" fill="#FFFFFF"/></g></svg>